<svg width="73" height="180" viewBox="0 0 73 180" fill="none" xmlns="http://www.w3.org/2000/svg">
<path d="M1 178.287C15.3492 177.306 21.8927 174.481 24.8525 160.237C27.5254 147.374 24.9897 131.995 23.5871 119.041C21.8507 103.002 24.9011 73.1644 44.4729 69.0877C59.6698 65.9222 73.3064 79.943 64.9379 94.4095C61.7116 99.9866 52.8726 101.042 47.9672 96.9577C42.6689 92.5466 41.951 83.212 42.0737 76.9141C42.4033 60.0001 60.1132 53.1871 66.4272 39.4145C72.3262 26.5472 68.8145 14.9816 63.2159 2.67384C62.7363 1.6196 67.2963 3.25859 68.4654 3.55639C72.751 4.64811 71.0665 3.30952 67.8261 2.48407C65.7421 1.95319 61.59 -0.269754 62.0599 2.83408C62.3989 5.07339 61.5095 9.37226 60.9316 11.641" stroke="#1C1C1C" stroke-width="2" stroke-linecap="round"/>
</svg>
