<svg width="48" height="48" viewBox="0 0 48 48" fill="none" xmlns="http://www.w3.org/2000/svg">
<g clip-path="url(#clip0_1_427)">
<path d="M23 48H25C35.88 48 41.3 48 44.66 44.64C48 41.28 48 35.84 48 25V22.96C48 12.16 48 6.72 44.66 3.36C41.3 0 35.86 0 25 0H23C12.12 0 6.7 0 3.34 3.36C0 6.72 0 12.16 0 23V25.04C0 35.84 0 41.28 3.36 44.64C6.72 48 12.16 48 23 48Z" fill="#66D3C8"/>
<path d="M37.3332 16.0007C37.3332 14.534 36.1332 13.334 34.6665 13.334H13.3332C11.8665 13.334 10.6665 14.534 10.6665 16.0007V32.0007C10.6665 33.4673 11.8665 34.6673 13.3332 34.6673H34.6665C36.1332 34.6673 37.3332 33.4673 37.3332 32.0007V16.0007ZM34.6665 16.0007L23.9998 22.6673L13.3332 16.0007H34.6665ZM34.6665 32.0007H13.3332V18.6673L23.9998 25.334L34.6665 18.6673V32.0007Z" fill="white"/>
</g>
<defs>
<clipPath id="clip0_1_427">
<rect width="48" height="48" fill="white"/>
</clipPath>
</defs>
</svg>
